<?xml version="1.0" encoding="iso-8859-1"?>
<!-- Uploaded to: SVG Repo, www.svgrepo.com, Generator: SVG Repo Mixer Tools -->
<svg fill="#ffffff" height="800px" width="800px" version="1.1" id="Capa_1" xmlns="http://www.w3.org/2000/svg" 
	 viewBox="0 0 54 54" xml:space="preserve">
<g>
	<g>
		<path d="M46,24c0-13.233-8.523-24-19-24S8,10.767,8,24c0,12.81,7.986,23.307,18,23.966V52h-3v2h8v-2h-3v-4.034
			C38.014,47.307,46,36.81,46,24z M10,24c0-12.131,7.626-22,17-22s17,9.869,17,22s-7.626,22-17,22S10,36.131,10,24z"/>
		<path d="M42,24c0-11.028-6.729-20-15-20s-15,8.972-15,20s6.729,20,15,20S42,35.028,42,24z M14,24c0-9.925,5.832-18,13-18
			s13,8.075,13,18s-5.832,18-13,18S14,33.925,14,24z"/>
		<path d="M21,26c0.256,0,0.512-0.098,0.707-0.293l8-8c0.391-0.391,0.391-1.023,0-1.414s-1.023-0.391-1.414,0l-8,8
			c-0.391,0.391-0.391,1.023,0,1.414C20.488,25.902,20.744,26,21,26z"/>
		<path d="M31.707,24.293c-0.391-0.391-1.023-0.391-1.414,0l-5,5c-0.391,0.391-0.391,1.023,0,1.414C25.488,30.902,25.744,31,26,31
			s0.512-0.098,0.707-0.293l5-5C32.098,25.316,32.098,24.684,31.707,24.293z"/>
		<path d="M24.707,26.293c-0.391-0.391-1.023-0.391-1.414,0l-3,3c-0.391,0.391-0.391,1.023,0,1.414C20.488,30.902,20.744,31,21,31
			s0.512-0.098,0.707-0.293l3-3C25.098,27.316,25.098,26.684,24.707,26.293z"/>
		<path d="M26.874,22.712l-1.581,1.581c-0.391,0.391-0.391,1.023,0,1.414C25.488,25.902,25.744,26,26,26s0.512-0.098,0.707-0.293
			l1.581-1.581c0.391-0.391,0.391-1.023,0-1.414S27.265,22.321,26.874,22.712z"/>
		<path d="M29.293,21.707C29.488,21.902,29.744,22,30,22s0.512-0.098,0.707-0.293l3-3c0.391-0.391,0.391-1.023,0-1.414
			s-1.023-0.391-1.414,0l-3,3C28.902,20.684,28.902,21.316,29.293,21.707z"/>
	</g>
</g>
</svg>